<svg xmlns="http://www.w3.org/2000/svg" width="375" viewBox="0 0 375 375" height="375" version="1.0"><g fill="#F1D45C"><g><g><path d="M 6.296875 0 L 6.296875 -45.03125 L 35.515625 -45.03125 L 35.515625 -38.34375 L 13.25 -38.34375 L 13.25 -25.859375 L 32.609375 -25.859375 L 32.609375 -19.171875 L 13.25 -19.171875 L 13.25 0 Z M 6.296875 0" transform="translate(5.08 205.245)"/></g></g></g><g fill="#F1D45C"><g><g><path d="M 39.6875 -30.6875 C 39.6875 -27.976562 38.878906 -25.46875 37.265625 -23.15625 C 35.660156 -20.84375 33.570312 -19.128906 31 -18.015625 L 41.484375 0.0625 L 33.0625 0 L 23.546875 -16.921875 L 13.25 -16.921875 L 13.25 0 L 6.296875 0 L 6.296875 -45.03125 L 25.46875 -45.03125 C 27.832031 -45.03125 30.097656 -44.453125 32.265625 -43.296875 C 34.429688 -42.140625 36.207031 -40.488281 37.59375 -38.34375 C 38.988281 -36.195312 39.6875 -33.644531 39.6875 -30.6875 Z M 24.3125 -38.34375 L 13.25 -38.34375 L 13.25 -23.609375 L 26.125 -23.609375 C 28.175781 -23.609375 29.769531 -24.335938 30.90625 -25.796875 C 32.039062 -27.253906 32.609375 -28.90625 32.609375 -30.75 C 32.609375 -33.101562 31.789062 -34.957031 30.15625 -36.3125 C 28.53125 -37.664062 26.582031 -38.34375 24.3125 -38.34375 Z M 24.3125 -38.34375" transform="translate(43.803 205.245)"/></g></g></g><g fill="#F1D45C"><g><g><path d="M 26.125 0 L 4.625 0 L 4.625 -6.4375 L 11.90625 -6.4375 L 11.90625 -38.59375 L 4.625 -38.59375 L 4.625 -45.03125 L 26.125 -45.03125 L 26.125 -38.59375 L 18.84375 -38.59375 L 18.84375 -6.4375 L 26.125 -6.4375 Z M 26.125 0" transform="translate(88.508 205.245)"/></g></g></g><g fill="#F1D45C"><g><g><path d="M 37.765625 -45.03125 L 44.703125 -45.03125 L 44.703125 0 L 38.34375 0 L 12.15625 -34.34375 C 12.414062 -31.726562 12.660156 -29.125 12.890625 -26.53125 C 13.128906 -23.9375 13.25 -21.332031 13.25 -18.71875 L 13.25 0 L 6.296875 0 L 6.296875 -45.03125 L 12.546875 -45.03125 L 38.71875 -9.96875 C 38.332031 -13.101562 38.078125 -16.476562 37.953125 -20.09375 C 37.828125 -23.71875 37.765625 -27.097656 37.765625 -30.234375 Z M 37.765625 -45.03125" transform="translate(119.255 205.245)"/></g></g></g><g fill="#F1D45C"><g><g><path d="M 26.375 -45.421875 C 28.945312 -45.421875 31.328125 -45.054688 33.515625 -44.328125 C 35.703125 -43.597656 37.628906 -42.648438 39.296875 -41.484375 C 40.972656 -40.328125 42.285156 -39.085938 43.234375 -37.765625 L 38.71875 -33.0625 C 37.007812 -34.695312 35.125 -36.035156 33.0625 -37.078125 C 31.007812 -38.128906 28.78125 -38.65625 26.375 -38.65625 C 23.332031 -38.65625 20.578125 -37.945312 18.109375 -36.53125 C 15.640625 -35.125 13.695312 -33.207031 12.28125 -30.78125 C 10.863281 -28.351562 10.15625 -25.597656 10.15625 -22.515625 C 10.15625 -19.472656 10.90625 -16.707031 12.40625 -14.21875 C 13.914062 -11.726562 15.921875 -9.753906 18.421875 -8.296875 C 20.929688 -6.835938 23.664062 -6.109375 26.625 -6.109375 C 28.769531 -6.109375 30.785156 -6.523438 32.671875 -7.359375 C 34.566406 -8.203125 36.101562 -9.351562 37.28125 -10.8125 C 38.457031 -12.269531 39.046875 -13.941406 39.046875 -15.828125 C 39.046875 -16.035156 39.046875 -16.160156 39.046875 -16.203125 L 26.25 -16.203125 L 26.25 -23.09375 L 46.1875 -23.09375 C 46.269531 -22.445312 46.34375 -21.800781 46.40625 -21.15625 C 46.476562 -20.519531 46.515625 -19.878906 46.515625 -19.234375 C 46.515625 -16.878906 46.160156 -14.5625 45.453125 -12.28125 C 44.742188 -10.007812 43.640625 -8.039062 42.140625 -6.375 C 40.421875 -4.226562 38.195312 -2.519531 35.46875 -1.25 C 32.75 0.0078125 29.738281 0.640625 26.4375 0.640625 C 23.175781 0.640625 20.128906 0.0507812 17.296875 -1.125 C 14.472656 -2.300781 11.988281 -3.941406 9.84375 -6.046875 C 7.695312 -8.148438 6.035156 -10.601562 4.859375 -13.40625 C 3.679688 -16.21875 3.09375 -19.253906 3.09375 -22.515625 C 3.09375 -25.773438 3.679688 -28.785156 4.859375 -31.546875 C 6.035156 -34.316406 7.6875 -36.738281 9.8125 -38.8125 C 11.9375 -40.894531 14.410156 -42.515625 17.234375 -43.671875 C 20.066406 -44.835938 23.113281 -45.421875 26.375 -45.421875 Z M 26.375 -45.421875" transform="translate(170.264 205.245)"/></g></g></g><g fill="#F1D45C"><g><g><path d="M 6.296875 -45.03125 L 34.671875 -45.03125 L 34.671875 -38.34375 L 13.25 -38.34375 L 13.25 -26.4375 L 31.140625 -26.4375 L 31.140625 -19.75 L 13.25 -19.75 L 13.25 -6.6875 L 34.671875 -6.6875 L 34.671875 0 L 6.296875 0 Z M 6.296875 -45.03125" transform="translate(219.536 205.245)"/></g></g></g><g fill="#F1D45C"><g><g><path d="M 26.125 0 L 4.625 0 L 4.625 -6.4375 L 11.90625 -6.4375 L 11.90625 -38.59375 L 4.625 -38.59375 L 4.625 -45.03125 L 26.125 -45.03125 L 26.125 -38.59375 L 18.84375 -38.59375 L 18.84375 -6.4375 L 26.125 -6.4375 Z M 26.125 0" transform="translate(259.031 205.245)"/></g></g></g><g fill="#F1D45C"><g><g><path d="M 6.296875 0 L 6.296875 -45.03125 L 35.515625 -45.03125 L 35.515625 -38.34375 L 13.25 -38.34375 L 13.25 -25.859375 L 32.609375 -25.859375 L 32.609375 -19.171875 L 13.25 -19.171875 L 13.25 0 Z M 6.296875 0" transform="translate(289.778 205.245)"/></g></g></g><g fill="#F1D45C"><g><g><path d="M 41.8125 -45.03125 L 25.34375 -20.078125 L 25.34375 0 L 18.390625 0 L 18.390625 -19.9375 L 0.640625 -45.03125 L 9 -45.03125 L 22 -26.375 L 33.84375 -45.03125 Z M 41.8125 -45.03125" transform="translate(328.502 205.245)"/></g></g></g><path transform="matrix(.75 0 0 .75 -4.244 135.34)" fill="none" d="M 20.1326 91.999626 L 20.1326 31.957955 L 59.085727 31.957955 L 59.085727 40.879831 L 29.408642 40.879831 L 29.408642 57.51004 L 55.23156 57.51004 L 55.23156 66.431916 L 29.408642 66.431916 L 29.408642 91.999626 Z M 116.288856 51.077748 C 116.288856 54.681915 115.210731 58.030874 113.059689 61.129832 C 110.924272 64.218374 108.137814 66.499624 104.705522 67.978791 L 118.695106 92.082959 L 107.450314 91.999626 L 94.757605 69.447541 L 81.038854 69.447541 L 81.038854 91.999626 L 71.762811 91.999626 L 71.762811 31.957955 L 97.33573 31.957955 C 100.476355 31.957955 103.49198 32.733997 106.382605 34.280872 C 109.273231 35.817331 111.643022 38.015248 113.502397 40.879831 C 115.356564 43.739206 116.288856 47.140248 116.288856 51.077748 Z M 95.783646 40.879831 L 81.038854 40.879831 L 81.038854 60.525666 L 98.189896 60.525666 C 100.945105 60.525666 103.070105 59.551707 104.580522 57.614207 C 106.101355 55.655874 106.861772 53.452749 106.861772 50.994415 C 106.861772 47.85379 105.77323 45.379831 103.596147 43.582956 C 101.419063 41.780873 98.814897 40.879831 95.783646 40.879831 Z M 157.799275 91.999626 L 129.148232 91.999626 L 129.148232 83.411084 L 138.846149 83.411084 L 138.846149 40.525664 L 129.148232 40.525664 L 129.148232 31.957955 L 157.799275 31.957955 L 157.799275 40.525664 L 148.101358 40.525664 L 148.101358 83.411084 L 157.799275 83.411084 Z M 214.314904 31.957955 L 223.590946 31.957955 L 223.590946 91.999626 L 215.090946 91.999626 L 180.179485 46.19754 C 180.528444 49.687123 180.856569 53.16629 181.16386 56.629832 C 181.481569 60.077749 181.643027 63.546499 181.643027 67.036083 L 181.643027 91.999626 L 172.366985 91.999626 L 172.366985 31.957955 L 180.700319 31.957955 L 215.611779 78.70275 C 215.096154 74.525667 214.747196 70.025666 214.564904 65.192333 C 214.398237 60.364207 214.314904 55.858999 214.314904 51.687123 Z M 267.143033 31.437122 C 270.575324 31.437122 273.752408 31.921497 276.669075 32.900664 C 279.59095 33.864206 282.158659 35.119414 284.377409 36.671497 C 286.611784 38.218373 288.361784 39.879831 289.632617 41.655873 L 283.6222 47.91629 C 281.335742 45.739206 278.814908 43.952748 276.064908 42.556915 C 273.325325 41.145456 270.351366 40.442331 267.143033 40.442331 C 263.096157 40.442331 259.424282 41.390248 256.127407 43.286081 C 252.846157 45.171498 250.257615 47.72879 248.356573 50.952748 C 246.471156 54.176707 245.528448 57.848582 245.528448 61.968374 C 245.528448 66.030874 246.528448 69.723583 248.52324 73.0465 C 250.533656 76.353792 253.21074 78.989209 256.544074 80.942334 C 259.89824 82.885042 263.549282 83.853792 267.497199 83.853792 C 270.361783 83.853792 273.049283 83.296501 275.5597 82.176709 C 278.075325 81.062125 280.111783 79.530875 281.674284 77.593375 C 283.252409 75.650667 284.044075 73.416292 284.044075 70.89025 C 284.044075 70.609 284.044075 70.442333 284.044075 70.385041 L 266.976366 70.385041 L 266.976366 61.213166 L 293.570118 61.213166 C 293.684701 62.067332 293.783659 62.926708 293.866993 63.791291 C 293.950326 64.640249 293.991993 65.494416 293.991993 66.343374 C 293.991993 69.499625 293.518034 72.593375 292.564909 75.624625 C 291.632618 78.650667 290.163867 81.275667 288.169076 83.499626 C 285.877409 86.359001 282.919075 88.635043 279.288867 90.322543 C 275.658658 92.015251 271.637825 92.859001 267.226366 92.859001 C 262.882616 92.859001 258.820115 92.077751 255.038865 90.515251 C 251.268032 88.937126 247.950323 86.744417 245.090948 83.937126 C 242.241989 81.129834 240.028447 77.859 238.450322 74.114208 C 236.887822 70.374625 236.106572 66.322541 236.106572 61.968374 C 236.106572 57.624624 236.887822 53.614207 238.450322 49.926707 C 240.028447 46.239206 242.226364 43.01004 245.049281 40.228789 C 247.882615 37.452748 251.184698 35.296497 254.955532 33.760039 C 258.736782 32.207955 262.799282 31.437122 267.143033 31.437122 Z M 306.075327 31.957955 L 343.919079 31.957955 L 343.919079 40.879831 L 315.351369 40.879831 L 315.351369 56.754832 L 339.184704 56.754832 L 339.184704 65.676708 L 315.351369 65.676708 L 315.351369 83.077751 L 343.919079 83.077751 L 343.919079 91.999626 L 306.075327 91.999626 Z M 385.163874 91.999626 L 356.51283 91.999626 L 356.51283 83.411084 L 366.210747 83.411084 L 366.210747 40.525664 L 356.51283 40.525664 L 356.51283 31.957955 L 385.163874 31.957955 L 385.163874 40.525664 L 375.465956 40.525664 L 375.465956 83.411084 L 385.163874 83.411084 Z M 399.731583 91.999626 L 399.731583 31.957955 L 438.684711 31.957955 L 438.684711 40.879831 L 409.007625 40.879831 L 409.007625 57.51004 L 434.830544 57.51004 L 434.830544 66.431916 L 409.007625 66.431916 L 409.007625 91.999626 Z M 498.710756 31.957955 L 476.762838 65.233999 L 476.762838 91.999626 L 467.486796 91.999626 L 467.486796 65.400666 L 443.820128 31.957955 L 454.965962 31.957955 L 472.304504 56.838165 L 488.075339 31.957955 Z M 498.710756 31.957955" stroke="#0FBE7B" stroke-width="1.662"/></svg>